# xmcd
#
# Track frame offsets:
#   150
#   10129
#   20515
#   36379
#   48887
#   65010
#   79871
#   92718
#   105346
#   118912
#   139122
#   153672
#   166059
#   176625
#   189593
#   205120
#   214711
#   225540
#   241751
#   258963
#   273591
#   288613
#   316879
#   336031
#
# Disc length: 4735 seconds
#
# Revision: 0
# Processed by: cddbd v1.5.1PL0 Copyright (c) Steve Scherf et al.
# Submitted via: Media_Universe 3.0
#
DISCID=50127d18
DTITLE=Aretha Franklin - Respect
DYEAR=2003
DGENRE=Blues
TTITLE0=Respect
TTITLE1=Think
TTITLE2=Spanish Harlem
TTITLE3=You Make Me Feel Like A Natural Women
TTITLE4=I Say A Litlle Prayer
TTITLE5=Son Of A Preacher Man
TTITLE6=I Never Loved A Man
TTITLE7=Chain Of Fools
TTITLE8=Don't Play That Song
TTITLE9=Angel
TTITLE10=Rocksteady
TTITLE11=See Saw
TTITLE12=The House That Jack Built
TTITLE13=Oh No Not My Baby
TTITLE14=Until You Come Back To Me
TTITLE15=Good Times
TTITLE16=Since You've Been Gone
TTITLE17=You're All I Need To Get By
TTITLE18=Ain't Nothing Like The Real Thing
TTITLE19=Do Right Woman - Do Right Man
TTITLE20=Share Your Love With Me
TTITLE21=Something He Can Feel
TTITLE22=Ain't No Way
TTITLE23=Sisters Are Doin' It For ThemsELVES
EXTD=EP
EXTT0=
EXTT1=
EXTT2=
EXTT3=
EXTT4=
EXTT5=
EXTT6=
EXTT7=
EXTT8=
EXTT9=
EXTT10=
EXTT11=
EXTT12=
EXTT13=
EXTT14=
EXTT15=
EXTT16=
EXTT17=
EXTT18=
EXTT19=
EXTT20=
EXTT21=
EXTT22=
EXTT23=
PLAYORDER=
